<svg width="95" height="63" viewBox="0 0 95 63" fill="none" xmlns="http://www.w3.org/2000/svg">
<path d="M46.73 0.18129C44.9249 0.435329 43.3739 0.769596 43.0397 0.983524C42.2909 1.46487 41.8764 2.85541 41.1277 7.40141C40.0046 14.1001 39.1087 25.5587 39.1087 33.2601C39.1087 34.3966 39.082 35.2924 39.0419 35.2657C38.975 35.1855 38.6541 21.4806 38.4536 9.50059C38.3867 5.64986 38.3065 2.46766 38.2797 2.44092C38.2396 2.41418 37.6246 2.82866 36.8892 3.36349C36.1672 3.89831 34.9371 4.79414 34.1616 5.34233C32.7577 6.3585 30.2975 8.13679 21.7938 14.2605C14.6138 19.4483 13.7314 20.0767 9.62659 23.0316C4.14465 26.9759 4.74632 26.4144 4.74632 27.6177C4.74632 28.1659 4.79981 28.5938 4.85329 28.567C4.92014 28.5403 7.83493 26.508 11.338 24.0478C14.8411 21.5876 18.3977 19.0873 19.2534 18.499C20.0958 17.9107 23.9331 15.2232 27.7972 12.509C31.6479 9.80811 34.8301 7.60196 34.8836 7.60196C34.9237 7.60196 34.9638 8.04319 34.9638 8.56465L34.9505 9.5407L19.7749 20.0366C11.4182 25.8127 4.45217 30.6395 4.30509 30.7732C3.93072 31.0941 3.87724 31.1342 9.29232 27.8985C11.6857 26.4679 15.4963 24.1949 17.7826 22.8444C20.0556 21.4806 24.8156 18.6461 28.3454 16.5335C32.0357 14.3274 34.79 12.763 34.8168 12.8566C34.9104 13.1106 34.536 35.8674 34.4424 35.9743C34.4023 36.0278 33.2524 36.4691 31.8886 36.9504C27.1554 38.6485 25.7782 39.1432 22.1281 40.4669C20.1091 41.1889 14.8812 43.0741 10.5358 44.6385C6.17698 46.2028 2.63377 47.5132 2.64714 47.5399C2.67388 47.5666 4.17139 47.1923 5.96305 46.7243C7.7547 46.2563 13.0495 44.8658 17.7158 43.6357C22.3821 42.419 28.0245 40.9348 30.2307 40.3465C32.4502 39.7716 34.3087 39.2902 34.3488 39.2902C34.4023 39.2902 34.429 39.6379 34.4023 40.0524L34.3622 40.8145L29.2813 42.1248C26.4869 42.8468 22.6094 43.8496 20.6573 44.3577C18.7052 44.8524 14.3598 45.9755 10.9904 46.8446L4.86666 48.4357L4.90677 49.7059L4.94688 50.9895L6.41765 51.3505C7.23325 51.5511 8.02212 51.7516 8.18256 51.7917C8.46334 51.8586 8.46334 51.872 8.26279 52.5539C8.14245 52.9416 8.03549 53.3427 8.00875 53.4229C7.982 53.5433 7.59426 53.5968 6.68506 53.5968H5.41485V55.0675V56.5383H6.59146H7.78145L7.94189 57.8352C8.02212 58.5439 8.23604 59.4798 8.42323 59.9211C8.59705 60.3623 8.71739 60.7634 8.69065 60.8169C8.6639 60.8704 8.28953 60.9105 7.86167 60.9238C5.33463 60.9907 0.227066 61.2715 0.0131366 61.3517C-0.227534 61.4319 2.83433 61.6057 9.55973 61.8865C28.078 62.6487 55.8754 62.769 77.4154 62.1539C85.879 61.9133 95.439 61.472 94.9844 61.3383C94.6902 61.2581 91.5883 61.0843 85.9459 60.857C84.7425 60.8169 83.7665 60.75 83.7665 60.7233C83.7665 60.6832 83.9804 60.4158 84.2344 60.1082C84.4885 59.8141 84.8762 59.1054 85.0902 58.5573L85.4779 57.5411L88.1654 57.4208L90.8529 57.3004L91 56.779C91.3075 55.6157 91.615 54.0113 91.5481 53.9444C91.508 53.8909 90.3715 53.9043 89.0211 53.9578C87.4835 54.0113 86.5743 53.9979 86.5743 53.9177C86.5743 53.6101 87.3765 52.5539 87.791 52.2998C88.0451 52.1394 88.874 51.8853 89.6362 51.7115C90.3849 51.5511 91.0401 51.3371 91.0668 51.2703C91.1738 50.9494 91.3208 48.2485 91.2273 48.2485C91.1738 48.2485 90.2111 48.6095 89.1013 49.0508C87.9782 49.492 87.0423 49.8396 87.0289 49.8129C86.962 49.746 88.0852 45.8151 88.4462 44.8791C88.7804 43.9566 89.0479 43.8229 90.6924 43.7293L91.9359 43.6624L91.8557 43.3148C91.6417 42.4591 90.9197 41.9644 89.8634 41.9644C89.5292 41.9644 89.2484 41.9376 89.2484 41.8975C89.2484 41.8574 89.4356 41.4563 89.6495 41.015L90.064 40.2128L90.0506 35.1454V30.0779L90.7325 29.035C91.1069 28.4601 91.6284 27.6044 91.8824 27.1364L92.3638 26.2807L92.2033 24.8634C91.8423 21.7748 90.8796 16.7876 90.532 16.2661C90.4117 16.0923 90.0774 15.8115 89.7832 15.6377L89.2484 15.3435V15.6511C89.2484 15.8249 89.3955 17.5497 89.5693 19.5018C89.8768 22.9514 89.8902 23.0584 89.6495 23.6066C89.2885 24.4355 88.8874 24.5826 87.0824 24.5826H85.5715L85.1035 23.8472C84.8495 23.4327 84.5152 23.0851 84.3681 23.045C84.2211 23.0182 82.1486 22.8444 79.7553 22.6439C77.362 22.4567 75.1826 22.2695 74.9151 22.2294C74.3803 22.1492 74.3001 22.2428 74.5809 22.6171C74.7012 22.7909 75.6505 22.9781 78.7124 23.4461C80.9052 23.7804 82.7236 24.0478 82.7637 24.0478C82.8038 24.0478 82.8305 24.1815 82.8305 24.3419V24.6227L79.5948 24.5425C77.8166 24.489 75.4366 24.4489 74.2867 24.4489H72.2009L71.5458 23.4461C71.1847 22.8979 70.8639 22.4433 70.8104 22.4433C70.7703 22.4433 68.5106 22.2561 65.7964 22.0288C63.0955 21.8149 60.8493 21.6544 60.8092 21.6946C60.7824 21.7213 60.8092 21.8684 60.876 22.0021C60.9964 22.2026 61.6248 22.3363 65.0075 22.8311C67.2003 23.152 69.0321 23.4595 69.0722 23.4996C69.1257 23.5397 69.2059 23.767 69.246 23.9943L69.3396 24.4088L64.3524 24.3553C61.6114 24.3286 59.0576 24.2483 58.6699 24.1681C57.8275 24.0077 56.8916 23.2322 56.5707 22.4433C56.2364 21.6143 56.0091 12.5625 56.3033 11.9474C56.6376 11.2388 57.1189 11.0516 58.3891 11.1452C59.0041 11.1853 61.0632 11.3056 62.9752 11.4126C78.7659 12.295 87.9515 12.8833 88.3927 13.0171C88.6601 13.0973 88.6735 13.0705 88.62 12.5223C88.5933 12.2014 88.4595 11.7602 88.3258 11.5463L88.0985 11.1452L76.8405 10.129C67.4009 9.27329 65.529 9.05936 65.2215 8.8588C65.0209 8.73846 64.9273 8.60476 65.0075 8.57802C65.1011 8.53791 67.08 8.64487 69.4198 8.79195C82.1353 9.62092 86.1732 9.87496 86.6813 9.87496C87.2295 9.87496 87.2428 9.8616 87.2428 9.42036C87.2428 8.9925 87.2161 8.96576 86.6813 8.89891C86.3604 8.84543 85.3977 8.77858 84.542 8.72509C83.4857 8.67161 82.9642 8.59139 82.9642 8.48442C82.9642 8.4042 83.1514 8.09668 83.3921 7.8159C83.8467 7.25433 84.689 6.8131 85.2773 6.79973C85.7854 6.79973 85.7319 6.63928 85.0099 5.99749C83.4991 4.67381 81.0924 3.39023 78.699 2.62811C77.9904 2.40081 77.1347 2.07991 76.787 1.90609C75.9848 1.49161 74.4739 1.10386 73.177 0.983524C71.9602 0.86319 71.9068 0.930042 72.5887 1.75902C72.9898 2.2671 73.4711 3.06934 73.4711 3.24315C73.4711 3.28326 73.1903 3.09608 72.8427 2.82867C72.0405 2.22699 70.3157 1.39801 69.2594 1.14397C68.3502 0.903301 62.7212 0.649261 58.6699 0.649261H56.1295L56.5841 1.54509C56.8247 2.02643 56.9986 2.45429 56.9718 2.4944C56.9317 2.52114 56.6108 2.29384 56.2498 1.97295C55.354 1.17072 53.8832 0.408588 52.7868 0.18129C51.6503 -0.0593834 48.4815 -0.0593834 46.73 0.18129ZM51.998 2.30721C52.72 2.73507 53.3618 3.51057 53.696 4.39302C54.057 5.34233 54.0169 5.40919 53.3885 4.88773C51.8643 3.64427 49.8186 2.93563 48.3612 3.13619L47.599 3.22978L48.3344 3.35012C50.3668 3.67101 52.1985 5.20863 53.7763 7.93623L54.3244 8.87217L54.4047 23.874C54.4715 33.7816 54.4582 38.8891 54.3646 38.8891C54.2309 38.8891 52.2654 38.381 48.3344 37.3381C47.1311 37.0172 46.1283 36.7766 46.1149 36.7899C46.1015 36.8033 47.96 37.9933 50.2464 39.4373L54.418 42.058L54.4581 46.6842C54.4715 49.238 54.4448 51.3238 54.3779 51.3238C54.3244 51.3238 53.2013 50.8424 51.8776 50.2541L49.4709 49.1845L49.364 48.2886C49.1099 45.9755 48.2943 43.9699 47.3316 43.2747C46.8503 42.9137 46.7166 42.8869 46.0213 42.927C45.1522 42.9939 44.6976 43.2613 44.2029 43.9967C43.8954 44.478 43.8686 44.4914 42.7589 44.5716C42.1438 44.6251 41.609 44.6385 41.5555 44.5984C41.248 44.2908 41.1009 27.016 41.3683 21.9753C41.7561 14.675 42.4915 9.20643 43.4274 6.66602C44.1227 4.75403 45.7673 3.08271 47.6258 2.38744C49.2971 1.75902 51.0085 1.73228 51.998 2.30721ZM57.6671 4.92785C58.5228 5.08829 59.4053 5.27548 59.6058 5.35571C60.0203 5.51615 60.8359 6.41198 60.9429 6.8131C61.0097 7.05377 60.9161 7.06714 58.4158 7.06714H55.8219L55.7952 6.3585C55.7818 5.98412 55.7685 5.43593 55.7417 5.15514C55.715 4.56684 55.608 4.58021 57.6671 4.92785ZM78.0171 30.947C80.1832 31.054 82.63 31.201 83.4322 31.2679C84.2478 31.3347 85.3843 31.4417 85.9726 31.4818C86.5609 31.5353 87.1359 31.6289 87.2428 31.6958C87.5102 31.8562 73.0299 31.7359 70.0616 31.5487C66.973 31.3481 63.0955 31.0272 62.4404 30.9069C60.7824 30.586 71.4254 30.6127 78.0171 30.947ZM79.3542 34.9448C84.1542 35.1855 86.0127 35.3593 86.2801 35.5732C86.4406 35.7203 86.4673 36.2551 86.4005 39.2234C86.3336 42.5126 86.3069 42.8334 85.8657 45.1064C84.796 50.4948 84.3013 52.38 83.9269 52.3934C83.8734 52.3934 83.4456 52.4603 82.9642 52.5271C81.1592 52.7812 76.3057 53.0619 73.5513 53.0619C69.3129 53.0619 66.0906 52.741 65.5023 52.2463C65.2215 52.019 64.7669 50.5215 64.9541 50.4547C65.1011 50.4012 68.5775 50.1204 76.5464 49.5187C80.504 49.2246 80.357 49.2513 80.6779 48.7165L80.9319 48.2619L80.1163 48.1951C79.6617 48.1416 75.7976 47.9009 71.5458 47.6469C67.2805 47.3928 63.7908 47.1655 63.7774 47.1521C63.6705 46.9783 63.3496 45.4942 63.3897 45.414C63.4298 45.3605 63.7106 45.307 64.0181 45.307C64.7 45.307 82.0818 44.2641 83.0712 44.1571C83.6862 44.0903 83.7932 44.0368 83.9804 43.6758C84.0874 43.4619 84.1542 43.2479 84.1141 43.2078C84.0472 43.141 77.4288 42.8067 65.2215 42.2719C63.8844 42.205 62.7613 42.1248 62.7345 42.0981C62.7078 42.058 62.6409 41.5766 62.5875 41.0017L62.4939 39.9855L63.4699 39.9053C64.0048 39.8652 65.9836 39.7582 67.8555 39.6914C69.7274 39.6111 74.0594 39.4373 77.4823 39.2902C80.9052 39.1432 83.9403 39.0228 84.2478 39.0228C84.7024 39.0228 84.8227 38.9693 84.9565 38.6752C85.0367 38.4746 85.0902 38.3008 85.0768 38.2874C85.05 38.2741 80.2233 38.127 74.3402 37.9666C68.4572 37.8061 63.3763 37.6323 63.0421 37.5788L62.4404 37.4852V36.3487C62.4404 35.7203 62.4805 35.1053 62.534 34.9715C62.6276 34.7576 63.0554 34.7442 68.9519 34.7442C72.709 34.7442 76.9341 34.8245 79.3542 34.9448ZM57.6938 42.1114C59.4454 42.5794 59.6593 42.7532 60.5017 44.4379C61.3039 46.0558 62.9618 49.9733 62.8682 50.0669C62.8148 50.1204 58.0816 49.6257 58.0281 49.5589C58.0014 49.5321 57.8008 48.1416 57.5601 46.4435C57.1323 43.395 57.1189 43.3683 56.6376 42.6997C56.3568 42.3387 56.0894 41.951 56.0225 41.844C55.9022 41.6435 55.9289 41.6435 57.6938 42.1114ZM41.7026 47.1388C41.7427 47.4196 41.7828 49.6123 41.7828 52.0057V56.3645L40.1516 56.4447C39.2424 56.4982 37.2101 56.5784 35.6324 56.6185L32.7577 56.7121L32.7176 55.3483C32.6775 54.3188 32.7176 53.9845 32.8513 53.931C32.9449 53.8909 34.4558 53.7171 36.2073 53.5299C39.5499 53.1823 39.911 53.0887 40.4859 52.4068C40.8202 52.0057 41.0742 51.2435 40.9271 51.0965C40.887 51.0564 39.0686 51.2168 36.8758 51.4441C34.6831 51.6714 32.8513 51.8586 32.7978 51.8586C32.731 51.8586 32.6908 51.2703 32.6908 50.5483L32.7042 49.2513L33.3727 48.5293L34.0413 47.8207L37.6781 47.2457C39.6837 46.9248 41.3817 46.6708 41.4619 46.6574C41.5422 46.6441 41.6491 46.8714 41.7026 47.1388ZM26.273 50.9227C26.273 53.4497 26.273 53.4631 25.9788 53.5165C25.6312 53.5968 19.1598 54.1316 18.6918 54.1316C18.4244 54.1316 18.3843 54.0647 18.3843 53.5433V52.9683L19.0261 52.8881C19.3737 52.848 20.8579 52.7009 22.3286 52.5806C23.7994 52.4469 25.0562 52.2998 25.1231 52.233C25.2434 52.1394 25.2568 49.9867 25.1365 49.8797C25.0964 49.8396 20.0958 50.4146 18.8924 50.6018L18.3843 50.682V50.1338C18.3843 49.8263 18.3977 49.5856 18.4244 49.5722C18.6785 49.5054 25.6445 48.409 25.912 48.3956L26.273 48.3822V50.9227ZM46.1149 49.7193C46.0079 50.1204 45.8876 51.1098 45.8475 51.9254C45.6737 55.0007 46.4091 57.8219 47.4386 58.0091L47.7862 58.0759L47.4921 58.5974C47.1043 59.2793 46.8503 59.4397 46.3823 59.2793C45.5266 58.9717 44.9517 56.8859 44.9517 54.0647C44.9517 51.5912 45.3127 49.9733 46.0347 49.1444C46.3288 48.8101 46.3422 48.9037 46.1149 49.7193ZM29.7761 53.5567C29.7092 56.1639 30.1638 58.0091 30.8323 57.8085C31.1399 57.7015 31.1532 57.862 30.8858 58.5038C30.6719 59.0119 30.4847 59.2124 30.1905 59.2124C29.9231 59.2124 29.5086 58.2631 29.3348 57.2737C29.1343 56.1104 29.2546 53.3695 29.5354 52.4202C29.6557 52.0458 29.7761 51.7249 29.7894 51.7249C29.8028 51.7249 29.8028 52.5539 29.7761 53.5567ZM60.0337 52.0057C61.5847 52.3266 62.2532 52.7009 62.6409 53.4631C62.788 53.7438 62.9084 54.0246 62.9084 54.0647C62.9084 54.1048 61.9858 54.1182 60.876 54.1048L58.8303 54.0647L58.6164 53.2625C58.2019 51.6848 58.2019 51.7249 58.4693 51.7249C58.603 51.7249 59.3117 51.8452 60.0337 52.0057ZM47.6659 52.38C48.0269 53.0753 47.6793 54.8536 47.2514 54.4391C47.0107 54.1984 46.9305 52.9951 47.1311 52.5271C47.3183 52.0591 47.4653 52.019 47.6659 52.38ZM13.5709 52.9282C13.3837 53.8374 13.4238 56.6319 13.611 57.5545C13.7982 58.4637 14.1458 59.0787 14.44 59.0787C14.7074 59.0787 14.694 59.199 14.3731 59.7205C14.0121 60.3088 13.718 60.2419 13.3436 59.4798C12.6617 58.1027 12.635 54.3321 13.3035 52.8346C13.6378 52.0859 13.718 52.126 13.5709 52.9282ZM9.41266 54.0113C9.22547 54.867 9.31906 57.7283 9.55973 58.4102C9.65333 58.6642 9.88063 59.0119 10.0544 59.1857L10.4021 59.4932L10.1347 59.8542C9.77366 60.3355 9.61322 60.3489 9.3458 59.9344C8.62379 58.838 8.55694 55.2547 9.22547 53.6502C9.50625 52.9683 9.59984 53.1422 9.41266 54.0113ZM53.6827 54.3589C53.6693 54.6263 52.9072 55.8029 52.613 56.0168C52.3991 56.1773 51.9044 56.2976 51.2492 56.3511L50.2063 56.4447V55.5489C50.2063 54.9338 50.2598 54.6664 50.3801 54.653C50.4603 54.653 51.0219 54.5728 51.6102 54.4659C52.8671 54.2653 53.6827 54.2252 53.6827 54.3589ZM27.7571 58.1695C28.1315 58.5573 28.6396 59.199 28.8936 59.5734L29.3482 60.2821H28.9738C28.7733 60.2821 26.3264 60.3489 23.5454 60.4158C20.7509 60.496 18.4512 60.5227 18.4244 60.496C18.3843 60.4692 18.4378 60.3088 18.518 60.1484C18.5982 59.9879 18.7721 59.3729 18.8924 58.7712L19.1197 57.6748L22.1281 57.6079C23.786 57.5678 25.5777 57.5143 26.0991 57.501L27.0752 57.4742L27.7571 58.1695ZM71.5992 58.7043V59.5066L73.7786 59.413L75.9714 59.3194L76.3993 59.8676C76.6533 60.1751 76.8271 60.4559 76.787 60.4826C76.7603 60.5094 73.324 60.4692 69.1524 60.389L61.5713 60.2286L61.7719 59.9612C61.8788 59.8007 62.173 59.306 62.4003 58.838L62.8281 58.0091L63.9112 57.9957C64.4995 57.9823 66.4248 57.9422 68.1897 57.8887C69.9547 57.8486 71.4388 57.8219 71.5056 57.8486C71.5591 57.8754 71.5992 58.2497 71.5992 58.7043ZM44.8046 59.1723C45.0185 59.6002 45.2057 59.9879 45.2324 60.0414C45.2592 60.1082 43.8285 60.1484 42.0636 60.1484C40.2853 60.1484 38.8413 60.0949 38.8413 60.028C38.8413 59.9612 38.9215 59.8408 39.0151 59.7606C39.1221 59.6804 39.3093 59.3729 39.443 59.0787L39.6837 58.5573L41.5021 58.5038C42.5048 58.4904 43.5745 58.4503 43.882 58.4369C44.4302 58.4102 44.4436 58.4102 44.8046 59.1723Z" fill="#008670"/>
</svg>
