<svg width="115" height="56" viewBox="0 0 115 56" fill="none" xmlns="http://www.w3.org/2000/svg">
<path d="M59.1615 0.744583C58.3122 1.16919 51.2531 4.30069 43.5039 7.69757C21.3711 17.4105 5.76671 24.3635 3.43136 25.5843C-2.56626 28.7158 5.60748 26.062 31.8272 16.4021C47.697 10.5637 60.7537 5.78683 60.8599 5.78683C60.913 5.78683 61.0191 7.6445 61.0191 9.92678V14.0667L56.4015 15.4998C44.0347 19.3744 7.94284 31.4227 8.10207 31.5819C8.2613 31.7942 23.2819 27.9727 33.4195 25.1597C35.0117 24.682 41.487 23.0366 47.75 21.3913C54.0131 19.799 59.5861 18.3659 60.1168 18.2067C60.913 17.9413 61.0191 18.419 61.0191 22.7182C61.0191 25.372 60.913 27.5481 60.8599 27.5481C59.1084 27.5481 6.82824 38.641 6.35055 39.0657C6.19132 39.2249 7.62438 39.1718 9.53513 38.9595C13.1974 38.588 48.5462 33.8642 56.4015 32.6965L61.0191 32.0065V34.5542C61.0191 37.5795 62.0806 37.208 49.3423 38.6941C34.8525 40.3926 36.0733 40.0741 36.0733 42.3564C36.0733 45.7533 35.5425 46.0187 28.2711 46.231C24.2373 46.3371 21.6896 46.1779 21.6365 45.8594C21.5304 45.541 23.8657 45.2756 27.7403 45.1694L33.9502 45.0102V42.8341V40.711L31.1902 40.9233C29.651 41.0826 22.698 41.8787 15.7451 42.7279L3.1129 44.2141L3.27213 46.8679C3.43136 49.2563 3.59058 49.5748 4.65211 49.734C5.71364 49.8932 6.88131 51.5917 6.88131 52.9186C6.88131 53.1309 5.60748 53.237 4.12135 53.237C2.58213 53.1839 1.04292 53.2901 0.671389 53.3963C-0.337061 53.8209 -0.177832 55.1478 0.93677 55.1478C35.4364 55.307 113.936 54.9885 114.255 54.6701C114.467 54.4578 114.308 53.9801 113.883 53.6086C113.299 53.1309 111.335 52.9716 107.195 53.1309C104.011 53.1839 101.357 53.1309 101.357 52.9716C101.357 52.7593 101.729 52.3347 102.206 51.9101C102.631 51.5386 103.374 50.5832 103.799 49.734C104.489 48.354 104.807 48.2479 107.461 48.2479C109.902 48.2479 110.486 48.0356 111.176 46.974C111.654 46.284 112.132 44.904 112.291 43.8956C112.715 41.3479 111.76 40.711 107.62 40.9233C104.648 41.0826 104.276 41.1887 104.117 42.2502C103.905 43.5771 102.79 43.8425 97.7479 43.5771C94.7756 43.4179 94.4041 43.2587 94.1387 42.091C93.8733 41.1356 93.4487 40.7641 92.6526 40.8703C92.0687 40.8703 88.5126 40.9233 84.8504 40.8703L78.1097 40.8172L76.8889 38.2695C75.1374 34.7665 73.8105 34.2357 68.9275 35.1911C66.7514 35.6157 64.8406 35.7749 64.5752 35.5626C64.3629 35.3503 64.2568 29.565 64.3099 22.7712L64.4691 10.3514L70.8382 8.86525C77.0482 7.43219 77.3666 7.37912 84.7442 7.96296C88.8842 8.28141 92.5464 8.38757 92.8649 8.17526C93.4487 7.80373 93.608 5.78683 93.0241 5.78683C92.7587 5.78683 85.5934 4.45992 76.9951 2.86763C68.3967 1.27534 61.2314 -0.0515633 61.0722 0.00151443C60.913 0.00151443 60.0638 0.373047 59.1615 0.744583ZM67.0167 44.0018C66.8044 46.4963 66.9106 47.4517 67.6006 48.5132C68.5029 49.8932 68.556 49.8932 69.5644 48.9909C70.8382 47.8232 70.9975 49.044 69.6706 50.4771C67.6006 52.7593 65.2122 50.7424 64.8406 46.3902C64.6814 44.2671 64.8406 43.0995 65.4775 42.1441C66.9106 39.968 67.3883 40.5518 67.0167 44.0018ZM42.0178 45.4348C41.8586 49.044 42.4424 50.424 43.7163 49.3625C44.4062 48.7786 44.5655 48.7786 44.5655 49.4155C44.5655 50.424 43.5039 51.4324 42.4424 51.4324C40.6378 51.4324 39.5763 45.8594 40.8501 43.4179C41.8055 41.6664 42.177 42.3033 42.0178 45.4348ZM9.00436 47.2925C9.00436 48.2479 9.16359 49.5748 9.32282 50.2117C9.80051 51.9632 8.57975 51.7509 7.88976 49.9994C7.30592 48.4602 7.73053 45.594 8.52668 45.594C8.79206 45.594 9.00436 46.3902 9.00436 47.2925ZM15.002 47.3986C14.8428 48.354 15.002 49.6809 15.3204 50.2648C15.692 50.9547 15.692 51.4855 15.4266 51.6978C14.2589 52.3878 13.0912 47.0271 14.1528 45.9656C14.9489 45.1164 15.2674 45.7002 15.002 47.3986ZM87.2388 50.3709C87.9819 51.5386 88.8842 52.494 89.2557 52.494C89.5742 52.494 89.7334 52.6532 89.5211 52.8124C89.3619 53.0247 86.3896 53.1309 82.9396 53.0778C78.1097 53.0778 76.7297 52.9186 76.8889 52.3878C76.9951 52.0163 77.3666 50.9017 77.6851 49.9463L78.2689 48.2479H82.0373H85.8057L87.2388 50.3709ZM62.8237 51.0078C63.3014 51.9101 63.6729 52.8124 63.6729 52.9716C63.6729 53.3432 51.4654 53.1839 51.0939 52.8655C50.9877 52.7063 51.2 52.0163 51.5185 51.2732C52.1023 49.9463 52.3677 49.8932 56.9853 49.6809C59.6391 49.6278 61.8683 49.4686 61.9214 49.4155C61.9745 49.3625 62.3991 50.0524 62.8237 51.0078ZM39.0986 51.2732C39.4701 52.0693 39.7886 52.8124 39.7886 52.9716C39.7886 53.1839 35.1179 53.2901 29.4387 53.2901C23.7596 53.2901 19.0889 53.1839 19.0889 52.9716C19.0889 52.8124 19.4073 52.0693 19.7789 51.2732L20.4158 49.8401H29.4387H38.4617L39.0986 51.2732Z" fill="#008670"/>
</svg>
