<svg width="102" height="48" viewBox="0 0 102 48" fill="none" xmlns="http://www.w3.org/2000/svg">
<path d="M67.4427 1.22279C68.7541 1.96381 71.6578 2.51958 73.9996 2.61221C80.8375 2.61221 84.8654 4.27951 90.2982 9.18881C100.134 18.0811 104.255 31.049 100.789 42.7202L99.1969 48H87.4881C79.2451 48 74.8426 47.6295 72.4072 46.6106C69.6908 45.499 63.1338 45.2212 34.5644 45.2212H0V40.5897C0 36.4215 0.281013 35.7731 2.43543 35.0321C5.71389 33.7353 5.33921 29.7523 1.96708 30.2154C-3.37213 30.9564 2.24809 28.2702 21.0758 21.1378C40.6529 13.7276 41.4023 13.2644 43.0884 10.0225C44.6808 6.96573 45.8985 6.13208 53.3921 3.16798C62.7592 -0.537148 64.0705 -0.722404 67.4427 1.22279ZM55.7339 4.5574C48.7086 7.24362 43.9314 10.3003 45.0555 11.4119C45.5238 11.7824 65.1946 4.74266 66.506 3.81638C66.8806 3.44586 64.6326 1.68593 63.6959 1.68593C63.4148 1.68593 59.8554 2.98272 55.7339 4.5574ZM69.8781 8.1699C69.5034 8.54041 71.2832 11.6898 73.9059 15.117C76.6224 18.5443 79.8072 23.3609 81.1185 25.8619C83.6476 30.9564 84.7717 31.2343 93.764 29.3817C98.4476 28.3628 98.5412 28.2702 97.9792 25.4914C97.1362 21.4157 92.2653 14.2834 87.2071 9.92983L82.8983 6.13208L76.8097 6.78048C73.4376 7.15099 70.3465 7.70676 69.8781 8.1699ZM57.4199 11.3193C56.5769 12.0603 56.7642 14.0055 58.4503 19.4705C59.5744 23.4535 60.7921 26.8808 61.0731 27.1587C61.3541 27.5292 64.1642 27.4366 67.349 27.066C71.7515 26.6029 73.0629 26.1398 73.0629 24.9356C73.0629 23.083 70.0654 18.1737 65.8503 12.9866C62.4781 8.91092 60.3237 8.54041 57.4199 11.3193ZM44.7744 15.3949C44.3061 15.858 44.4934 19.1926 45.0555 22.8978L46.1795 29.6596L50.301 29.1039C52.6428 28.826 54.7972 28.3628 55.2655 28.0849C55.9212 27.6218 53.2048 15.5802 51.8934 13.635C51.425 12.8013 45.9922 14.1907 44.7744 15.3949ZM36.3441 18.1737C35.9694 18.5443 36.1568 21.5084 36.7188 24.6577C37.7492 30.308 37.8428 30.4007 40.8403 30.4007C42.5264 30.4007 44.1188 30.0301 44.4934 29.4744C44.7744 29.0112 44.4934 25.8619 43.8377 22.5273L42.7137 16.3212L39.9036 16.8769C38.3112 17.2475 36.7188 17.8032 36.3441 18.1737ZM29.5998 20.4894C28.2885 21.5084 28.1011 22.342 28.7568 26.2324C29.5062 30.7712 29.5998 30.8638 33.1593 31.1417L36.7188 31.4196L36.1568 27.8997C34.7517 20.0263 34.4707 19.2853 32.8783 19.2853C32.0353 19.2853 30.5365 19.841 29.5998 20.4894ZM18.7341 27.4366C18.7341 32.1606 19.5771 32.9942 23.2303 32.4385L26.4151 31.9753L25.7594 27.7144C24.9163 22.1567 24.8227 21.9715 21.5442 23.1757C19.1088 24.0093 18.7341 24.5651 18.7341 27.4366ZM13.6759 26.0471C12.5518 26.8808 12.0835 28.1776 12.3645 30.4007C12.5518 32.9942 13.0202 33.55 14.5189 33.3648C18.0784 32.809 18.3594 32.4385 17.9847 28.6407C17.61 24.6577 16.486 24.0093 13.6759 26.0471ZM6.55693 29.0112C4.87086 31.049 6.27592 34.1058 8.99236 34.1058C10.9594 34.1058 11.2404 33.6426 11.2404 30.8638C11.2404 28.2702 10.8658 27.6218 9.46072 27.6218C8.52401 27.6218 7.21262 28.2702 6.55693 29.0112ZM96.0121 33.1795C95.1691 34.5689 97.3235 36.8846 98.9159 36.2362C100.977 35.4952 100.602 32.2532 98.4476 32.2532C97.4172 32.2532 96.2931 32.7164 96.0121 33.1795ZM84.3033 35.9583C84.3033 38.1814 86.7388 39.4782 88.2375 37.9962C89.7362 36.5141 88.4248 34.1058 86.1767 34.1058C84.959 34.1058 84.3033 34.7542 84.3033 35.9583Z" fill="#008670"/>
</svg>
