<svg width="120" height="38" viewBox="0 0 120 38" fill="none" xmlns="http://www.w3.org/2000/svg">
<path d="M95.9551 0.247669C88.9438 0.742054 88.7191 0.83194 62.6966 12.7421L52.1348 17.551L45.8427 17.5061C42.382 17.4612 37.6629 17.3263 35.3258 17.1465L31.1011 16.8769L28.1348 14.405C26.5169 13.0567 24.809 11.6185 24.4045 11.2589C23.7303 10.7196 23.3708 10.7196 21.3933 11.3937C18.9213 12.2027 18.6517 12.787 19.7753 14.7645C20.1348 15.3937 20.4045 16.023 20.4494 16.2027C20.4494 16.3825 16.5393 16.5623 11.8202 16.6522C3.41573 16.787 3.10112 16.8319 1.57303 17.9106L0 19.0342L4.26966 19.7982C6.60674 20.2027 12.2697 21.1915 16.8539 21.9555C27.2809 23.7533 34.8315 25.1016 35.7303 25.4162C36.1798 25.551 35.9101 25.8657 34.8315 26.4499C32.8989 27.4836 33.2584 27.5735 35.5056 26.6297C36.4045 26.2701 37.7978 26.0005 38.6067 26.0904L40 26.2701L37.9775 27.214C35.4607 28.4274 35.6404 28.4724 39.3258 27.4387C42.1124 26.6746 44.2697 26.5848 44.2697 27.2589C44.2697 27.4387 42.382 28.2027 40.0899 28.9668C36.5843 30.1353 35.4607 30.3151 32.764 30.1803L29.573 29.9555L27.9551 27.169C26.7865 25.1016 26.0225 24.2477 25.1685 24.1128C24.5393 23.978 24.0449 24.023 24.0449 24.2477C24.0449 24.4274 22.7865 25.3263 21.2584 26.1803C17.8876 28.0679 17.9775 28.2027 21.7079 26.6746C24.9438 25.3713 24.764 25.3713 25.0787 26.1803C25.2584 26.5848 24.809 27.214 23.9101 27.7533C22.2921 28.787 22.4719 28.9668 24.3146 28.1578C25.3483 27.6634 25.573 27.7083 26.1124 28.4724C27.4157 30.2252 27.0112 30.36 19.8202 30.7196C15.236 30.9443 12.5843 31.2589 12.0449 31.6185C11.5955 31.9331 11.3708 32.3376 11.5056 32.5173C11.6854 32.6522 16.2247 32.8319 21.618 32.8769L31.4607 32.9668L38.7865 30.405C44.8539 28.2477 46.1573 27.9331 46.382 28.5173C46.5169 28.8769 46.5618 29.2364 46.4719 29.3263C46.2022 29.551 32.764 33.9106 30.4719 34.5398C29.1236 34.8544 28.2697 34.8994 27.6404 34.5398C26.9213 34.1803 26.6966 34.2701 26.2472 35.0342C25.3034 36.8769 26.1124 37.0117 37.4382 37.0117C47.7303 37.0117 48.2697 36.9668 52.5843 35.7533C63.4607 32.6971 78.2022 28.2926 84.6292 26.2252C84.9438 26.0904 85.1236 26.1803 84.9888 26.36C84.8539 26.5848 83.2809 27.3039 81.4831 28.023C79.6854 28.7421 77.7079 29.551 77.0787 29.9106C76 30.4499 76.0899 30.4949 78.3371 30.4949C80.4944 30.4949 81.4382 31.0342 80.1348 31.5286C79.6854 31.7083 79.6854 31.8432 80.1348 32.3376C81.573 33.8657 94.0225 32.8319 97.0787 30.9443C98.2472 30.2252 99.3708 30.0454 102.742 30.0005C110.202 29.9555 117.213 29.3263 118.652 28.6072L120 27.8881L118.876 27.3937C117.843 26.9892 112.809 25.7308 105.169 24.0679C103.461 23.6634 100.944 23.1241 99.5955 22.8095L97.1685 22.2701L99.8202 21.3263C105.528 19.214 111.685 14.1353 113.888 9.73082C115.146 7.25891 115.596 5.77576 115.101 5.77576C115.011 5.77576 110.337 7.39374 104.674 9.32632C99.0112 11.2589 89.8427 14.405 84.3146 16.2926C75.3258 19.3937 72.8989 20.023 74.2022 18.8994C74.427 18.6746 80.809 16.2926 88.4045 13.596C96 10.9443 102.112 8.65217 102.067 8.56228C101.978 8.51733 94.7865 10.6746 86.1124 13.4162C77.3933 16.1128 70.1124 18.36 69.8876 18.36C69.618 18.36 69.4382 18.1353 69.4382 17.9106C69.4382 17.6409 69.7079 17.4612 69.9775 17.4612C70.7416 17.4612 89.618 10.5398 89.4382 10.3151C89.3483 10.2252 88.6292 10.36 87.8652 10.6297C86.5618 11.1241 86.5169 11.0791 86.7865 9.95554C87.0112 9.1016 86.9213 8.87688 86.4719 9.01172C86.1124 9.14655 85.8427 9.68587 85.8427 10.2701C85.8427 10.8994 85.4382 11.4387 84.809 11.6634C84 11.978 83.8202 11.8881 83.8202 11.1241C83.8202 10.5847 83.5955 10.2701 83.2809 10.405C82.9663 10.4949 82.6966 10.9443 82.6966 11.4387C82.6966 12.6072 80.809 12.8769 80.5393 11.7533C80.4045 11.0791 80.2697 11.169 79.8652 12.1578C79.3708 13.3713 77.5281 14.0005 77.5281 12.9668C77.5281 12.6971 77.3483 12.5173 77.0787 12.5173C76.8539 12.5173 76.6292 12.8769 76.6292 13.3713C76.6292 13.8207 76.2247 14.3151 75.7303 14.4499C75.236 14.5848 74.8315 14.4949 74.8315 14.2701C74.8315 14.0454 74.5169 13.8656 74.1573 13.8656C73.7978 13.8656 73.4831 14.1803 73.4831 14.5398C73.4831 15.1241 72.6292 15.4387 71.5056 15.2589C71.3258 15.214 70.8764 15.4387 70.5169 15.7083C69.8876 16.2027 68.9888 16.4274 65.9326 16.787C65.1236 16.8769 63.7303 17.1915 62.7865 17.4612C60.764 18.0005 56.0449 18.0904 56.6292 17.551C57.1236 17.1016 75.3258 8.69711 83.0562 5.32632C89.9326 2.36003 92.809 1.46115 97.3034 0.83194C103.101 0.022953 102.472 -0.246712 95.9551 0.247669ZM26.5169 14.36C27.7753 15.3488 28.9438 16.3825 29.2135 16.6072C29.4382 16.8319 28.2247 17.0117 26.0674 17.0117H22.4719L21.4831 15.2589L20.4494 13.5061L21.7079 13.0567C23.6854 12.2926 24.1798 12.4274 26.5169 14.36ZM104.944 16.3376C104.944 16.4724 103.461 17.2814 101.708 18.1803C96.4944 20.787 56 34.1803 53.618 34.0454C52.7191 34.0005 54.1573 33.5061 69.4382 28.2477C77.2135 25.551 88.2697 21.7758 93.9326 19.7533C104.494 16.1128 104.944 15.9331 104.944 16.3376ZM67.2809 18.405C69.3483 19.4836 70.2022 24.7421 68.5393 26.2252C67.6854 26.9892 67.6854 26.9892 67.9101 24.8319C68.2247 22.0904 67.5955 20.3825 65.8427 19.3488C63.9101 18.1353 65.1685 17.2814 67.2809 18.405ZM62.5618 21.2364C62.6067 23.169 62.6067 23.214 60.764 23.7533C59.7303 24.0679 56.8989 25.1915 54.4719 26.2701C52 27.3488 49.8876 28.2477 49.7978 28.2477C49.2584 28.2477 52.2697 25.1465 54.3371 23.5735C56.2697 22.0904 61.4831 19.2589 62.2472 19.2589C62.382 19.2589 62.5169 20.1578 62.5618 21.2364Z" fill="#008670"/>
</svg>
