<svg width="116" height="44" viewBox="0 0 116 44" fill="none" xmlns="http://www.w3.org/2000/svg">
<path d="M102.399 0.262665C101.56 0.365818 97.7838 1.19105 94.1128 2.06786L87.4003 3.66675L81.2646 2.89309L75.1813 2.11944L67.1577 4.74987L59.1341 7.3803V9.75284C59.1341 11.4033 58.8719 12.2801 58.3475 12.4864C57.7182 12.6927 57.5609 12.2801 57.5609 10.4749C57.5609 9.18549 57.3511 8.15395 57.1413 8.15395C56.9315 8.15395 54.0472 9.03076 50.7434 10.1139L44.7126 12.1254L44.5553 14.4979C44.3979 16.7673 44.2931 16.9221 42.4576 17.4378C39.6257 18.2115 39.2062 18.1083 39.2062 16.6126C39.2062 15.7358 39.5209 15.1684 40.255 15.0137C41.0417 14.8074 41.3039 14.2916 41.3039 13.0538C41.3039 12.0738 40.9892 11.2486 40.5697 11.0938C38.2098 10.1655 29.7667 9.49496 20.8516 9.49496L10.6254 9.44338L10.4681 12.1254C10.3107 14.5495 10.4156 14.8074 11.5169 14.9621C12.6706 15.1169 12.7231 15.2716 12.7231 20.9451V26.8248L8.10819 28.5269C5.53854 29.5069 3.33598 30.3837 3.17865 30.5384C3.02133 30.6415 3.59819 31.9825 4.43726 33.4783C6.16784 36.6761 8.31796 37.8108 16.1318 39.7707L21.1138 41.0085L18.1246 41.4211C14.9256 41.8338 5.80075 40.338 2.07738 38.8423C1.08098 38.3781 0.137027 38.1718 0.0321431 38.2749C-0.439834 38.7391 4.38482 41.3696 8.0033 42.659C11.3071 43.8453 12.4084 44 19.0161 44C24.6274 44 27.5641 43.6905 31.6021 42.8137C37.7903 41.4727 41.1466 41.318 53.3655 41.8853C62.0709 42.2464 62.9099 42.1948 69.6225 40.9054C79.2718 39.0486 87.4003 38.6876 93.7457 39.8223C100.563 41.0601 106.804 41.0085 111.052 39.6675C112.939 39.1002 114.932 38.2749 115.509 37.8623C116.401 37.1918 116.191 37.1918 113.936 37.8623C110.212 38.997 105.23 38.5328 97.6264 36.3666C87.1905 33.3751 86.4039 33.3751 71.3006 36.7792C66.6857 37.8108 64.3259 38.0686 60.2878 37.9655C57.4035 37.8623 55.7778 37.656 56.512 37.4497C57.2462 37.295 62.9099 35.9024 69.0981 34.4067C79.4291 31.931 80.845 31.6731 86.1417 31.7247C89.3406 31.7762 93.1164 32.1373 94.5848 32.4983L97.3118 33.272L97.6789 30.1258C98.0984 26.5154 98.7801 25.0712 102.084 20.8419C105.755 16.2 109.269 10.4233 110.737 6.50349C112.677 1.44894 111.733 -0.0983734 106.856 0.00477982C105.283 0.00477982 103.29 0.159512 102.399 0.262665ZM83.6769 4.02779C85.2502 4.44041 85.355 4.38883 80.1633 6.0393C75.2338 7.58661 74.8667 7.53503 74.8667 5.00775V2.89309L78.59 3.25414C80.6353 3.46044 82.9427 3.82148 83.6769 4.02779ZM92.6444 10.4233C92.9067 11.8159 91.281 12.899 90.0224 12.2285C89.026 11.7128 88.7113 10.217 89.3931 9.49496C90.1272 8.77288 92.4347 9.44338 92.6444 10.4233ZM25.7811 14.0853C25.9909 14.7042 25.6238 14.859 24.2603 14.859C23.0017 14.859 22.4248 14.6011 22.4248 14.0853C22.4248 13.5695 22.9492 13.3117 23.9456 13.3117C24.7847 13.3117 25.5713 13.6211 25.7811 14.0853ZM30.6582 14.0853C30.8155 14.5495 30.8155 15.0137 30.6582 15.22C30.0813 15.7358 27.669 14.859 27.669 14.0853C27.669 13.0538 30.2386 13.0538 30.6582 14.0853ZM36.0597 14.6011C36.0597 15.1169 35.5353 15.3747 34.4864 15.3747C33.4376 15.3747 32.9132 15.1169 32.9132 14.6011C32.9132 14.0853 33.4376 13.8274 34.4864 13.8274C35.5353 13.8274 36.0597 14.0853 36.0597 14.6011ZM26.0957 17.1799C26.0957 17.6957 25.5189 17.9536 24.2603 17.9536C23.0017 17.9536 22.4248 17.6957 22.4248 17.1799C22.4248 16.6642 23.0017 16.4063 24.2603 16.4063C25.5189 16.4063 26.0957 16.6642 26.0957 17.1799ZM30.8155 17.1799C30.8155 17.6957 30.2911 17.9536 29.2423 17.9536C28.1934 17.9536 27.669 17.6957 27.669 17.1799C27.669 16.6642 28.1934 16.4063 29.2423 16.4063C30.2911 16.4063 30.8155 16.6642 30.8155 17.1799Z" fill="#008670"/>
</svg>
